<mxfile host="65bd71144e">
    <diagram id="AMO7tc2usAyId7cFLpDz" name="Page-1">
        <mxGraphModel dx="1140" dy="489" grid="1" gridSize="10" guides="1" tooltips="1" connect="1" arrows="1" fold="1" page="1" pageScale="1" pageWidth="850" pageHeight="1100" math="0" shadow="0">
            <root>
                <mxCell id="0"/>
                <mxCell id="1" parent="0"/>
                <mxCell id="2" value="" style="rounded=1;whiteSpace=wrap;html=1;" parent="1" vertex="1">
                    <mxGeometry x="50" y="30" width="550" height="420" as="geometry"/>
                </mxCell>
                <mxCell id="3" value="Admin Dashboard" style="rounded=0;whiteSpace=wrap;html=1;" parent="1" vertex="1">
                    <mxGeometry x="90" y="50" width="470" height="40" as="geometry"/>
                </mxCell>
                <mxCell id="4" value="Add" style="whiteSpace=wrap;html=1;" parent="1" vertex="1">
                    <mxGeometry x="160" y="500" width="120" height="60" as="geometry"/>
                </mxCell>
                <mxCell id="5" value="Delete" style="whiteSpace=wrap;html=1;" parent="1" vertex="1">
                    <mxGeometry x="300" y="500" width="120" height="60" as="geometry"/>
                </mxCell>
                <mxCell id="6" value="SORT" style="whiteSpace=wrap;html=1;" parent="1" vertex="1">
                    <mxGeometry x="440" y="500" width="120" height="60" as="geometry"/>
                </mxCell>
                <mxCell id="12" value="" style="edgeStyle=none;html=1;" parent="1" source="8" target="9" edge="1">
                    <mxGeometry relative="1" as="geometry"/>
                </mxCell>
                <mxCell id="14" value="" style="edgeStyle=none;html=1;" parent="1" source="8" target="13" edge="1">
                    <mxGeometry relative="1" as="geometry"/>
                </mxCell>
                <mxCell id="8" value="ADD QUESTIONS" style="rounded=1;whiteSpace=wrap;html=1;" parent="1" vertex="1">
                    <mxGeometry x="100" y="120" width="120" height="60" as="geometry"/>
                </mxCell>
                <mxCell id="9" value="VIEW ALL QUES" style="rounded=1;whiteSpace=wrap;html=1;" parent="1" vertex="1">
                    <mxGeometry x="420" y="120" width="120" height="60" as="geometry"/>
                </mxCell>
                <mxCell id="13" value="Dropdown - mcq / text&lt;br&gt;Question&amp;nbsp;&lt;br&gt;&lt;br&gt;For MCQ - ADD MCQ's&lt;br&gt;Points for that question" style="whiteSpace=wrap;html=1;aspect=fixed;" parent="1" vertex="1">
                    <mxGeometry x="90" y="240" width="140" height="140" as="geometry"/>
                </mxCell>
                <mxCell id="15" value="Empty fileds in Admin Portal check" style="text;html=1;align=center;verticalAlign=middle;resizable=0;points=[];autosize=1;strokeColor=none;fillColor=none;" vertex="1" parent="1">
                    <mxGeometry x="180" y="190" width="200" height="20" as="geometry"/>
                </mxCell>
            </root>
        </mxGraphModel>
    </diagram>
</mxfile>